<?xml version="1.0" standalone="no"?>
<!DOCTYPE svg PUBLIC "-//W3C//DTD SVG 20010904//EN"
 "http://www.w3.org/TR/2001/REC-SVG-20010904/DTD/svg10.dtd">
<svg version="1.0" xmlns="http://www.w3.org/2000/svg"
 width="512.000000pt" height="512.000000pt" viewBox="0 0 512.000000 512.000000"
 preserveAspectRatio="xMidYMid meet">
<metadata>
Created by potrace 1.14, written by Peter Selinger 2001-2017
</metadata>
<g transform="translate(0.000000,512.000000) scale(0.100000,-0.100000)"
fill="#000000" stroke="none">
<path d="M745 4789 c-201 -46 -357 -195 -406 -387 -18 -71 -19 -134 -19 -1516
0 -1221 2 -1451 15 -1509 44 -209 224 -377 440 -411 17 -2 469 -5 1006 -5
l977 -1 13 -32 c28 -68 104 -182 171 -256 198 -217 464 -340 753 -347 244 -6
432 46 628 175 93 60 227 190 285 277 87 129 160 308 180 443 8 59 8 261 0
325 -19 143 -87 315 -172 440 -99 144 -263 288 -404 354 l-52 24 -1 976 c-1
537 -3 988 -4 1002 -14 110 -69 215 -159 304 -76 75 -132 107 -236 136 -61 17
-155 18 -1520 17 -850 0 -1472 -4 -1495 -9z"/>
</g>
</svg>
