<?xml version="1.0" encoding="utf-8"?>
<!-- Generator: Adobe Illustrator 27.5.0, SVG Export Plug-In . SVG Version: 6.00 Build 0)  -->
<svg version="1.1" xmlns="http://www.w3.org/2000/svg" xmlns:xlink="http://www.w3.org/1999/xlink" x="0px" y="0px"
	 viewBox="0 0 500 500" style="enable-background:new 0 0 500 500;" xml:space="preserve">
<g id="Background_Complete">
	<g>
		<rect y="382.398" style="fill:#EBEBEB;" width="500" height="0.25"/>
		<rect x="416.779" y="398.494" style="fill:#EBEBEB;" width="33.122" height="0.25"/>
		<rect x="322.527" y="401.208" style="fill:#EBEBEB;" width="8.693" height="0.25"/>
		<rect x="396.586" y="389.208" style="fill:#EBEBEB;" width="19.192" height="0.25"/>
		<rect x="52.459" y="390.888" style="fill:#EBEBEB;" width="43.193" height="0.25"/>
		<rect x="104.556" y="390.888" style="fill:#EBEBEB;" width="6.333" height="0.25"/>
		<rect x="131.471" y="395.111" style="fill:#EBEBEB;" width="93.676" height="0.25"/>
		<path style="fill:#EBEBEB;" d="M237.014,337.8H43.915c-3.147,0-5.708-2.561-5.708-5.708V60.66c0-3.147,2.561-5.708,5.708-5.708
			h193.099c3.146,0,5.707,2.561,5.707,5.708v271.432C242.721,335.239,240.16,337.8,237.014,337.8z M43.915,55.203
			c-3.01,0-5.458,2.448-5.458,5.458v271.432c0,3.01,2.448,5.458,5.458,5.458h193.099c3.009,0,5.457-2.448,5.457-5.458V60.66
			c0-3.009-2.448-5.458-5.457-5.458H43.915z"/>
		<path style="fill:#EBEBEB;" d="M453.31,337.8H260.212c-3.147,0-5.707-2.561-5.707-5.708V60.66c0-3.147,2.561-5.708,5.707-5.708
			H453.31c3.148,0,5.708,2.561,5.708,5.708v271.432C459.019,335.239,456.458,337.8,453.31,337.8z M260.212,55.203
			c-3.009,0-5.457,2.448-5.457,5.458v271.432c0,3.01,2.448,5.458,5.457,5.458H453.31c3.01,0,5.458-2.448,5.458-5.458V60.66
			c0-3.009-2.448-5.458-5.458-5.458H260.212z"/>
	</g>
	<g>
		<g>
			<rect x="93.238" y="65.747" style="fill:#FAFAFA;" width="71.254" height="241.711"/>
			<g>
				<polygon style="fill:#F5F5F5;" points="153.881,65.747 149.718,65.747 124.866,307.457 129.029,307.457 				"/>
			</g>
			<rect x="92.783" y="66.682" style="fill:#E0E0E0;" width="70.447" height="2.13"/>
			<rect x="92.783" y="305.343" style="fill:#EBEBEB;" width="70.447" height="4.558"/>
			<g>
				<rect x="95.492" y="309.699" style="fill:#EBEBEB;" width="66.567" height="0.202"/>
				<polygon style="fill:#EBEBEB;" points="95.492,66.682 162.058,66.682 162.058,309.699 166.046,309.699 166.046,63.694 
					91.504,63.694 91.504,309.699 95.492,309.699 				"/>
			</g>
		</g>
		<g>
			<rect x="172.525" y="65.747" style="fill:#FAFAFA;" width="71.254" height="241.711"/>
			<g>
				<polygon style="fill:#F5F5F5;" points="224.015,65.747 201.298,65.747 176.446,307.457 199.163,307.457 				"/>
			</g>
			<rect x="172.07" y="66.682" style="fill:#E0E0E0;" width="72.447" height="2.13"/>
			<rect x="172.07" y="305.343" style="fill:#EBEBEB;" width="72.447" height="4.558"/>
			<g>
				<rect x="174.779" y="309.699" style="fill:#EBEBEB;" width="66.567" height="0.202"/>
				<polygon style="fill:#EBEBEB;" points="174.779,66.682 241.346,66.682 241.346,309.699 245.333,309.699 245.333,63.694 
					170.792,63.694 170.792,309.699 174.779,309.699 				"/>
			</g>
		</g>
		<g>
			<rect x="251.813" y="65.747" style="fill:#FAFAFA;" width="69.254" height="241.711"/>
			<g>
				<polygon style="fill:#F5F5F5;" points="291.051,65.747 286.888,65.747 262.035,307.457 266.199,307.457 				"/>
			</g>
			<rect x="251.357" y="66.682" style="fill:#E0E0E0;" width="70.447" height="2.13"/>
			<rect x="251.357" y="305.343" style="fill:#EBEBEB;" width="70.447" height="4.558"/>
			<g>
				<rect x="254.066" y="309.699" style="fill:#EBEBEB;" width="66.567" height="0.202"/>
				<polygon style="fill:#EBEBEB;" points="254.066,66.682 320.633,66.682 320.633,309.699 324.62,309.699 324.62,63.694 
					250.079,63.694 250.079,309.699 254.066,309.699 				"/>
			</g>
		</g>
		<g>
			<rect x="331.1" y="65.747" style="fill:#FAFAFA;" width="71.254" height="241.711"/>
			<g>
				<polygon style="fill:#F5F5F5;" points="395.383,65.747 372.666,65.747 347.813,307.457 370.53,307.457 				"/>
			</g>
			<rect x="330.645" y="66.682" style="fill:#E0E0E0;" width="70.447" height="2.13"/>
			<rect x="330.645" y="305.343" style="fill:#EBEBEB;" width="70.447" height="4.558"/>
			<g>
				<polygon style="fill:#EBEBEB;" points="333.353,66.682 399.92,66.682 399.92,309.699 403.908,309.699 403.908,63.694 
					329.366,63.694 329.366,309.699 333.353,309.699 				"/>
				<rect x="333.353" y="309.699" style="fill:#EBEBEB;" width="66.567" height="0.202"/>
			</g>
		</g>
		<g>
			<rect x="116.512" y="251.86" style="fill:#EBEBEB;" width="30.933" height="53.488"/>
			<polygon style="fill:#EBEBEB;" points="141.505,244.385 141.505,257.801 139.066,257.801 124.892,257.801 122.453,257.801 
				122.453,244.385 			"/>
			
				<rect x="141.505" y="253.84" transform="matrix(-1 -1.224647e-16 1.224647e-16 -1 286.9707 511.6407)" style="fill:#FAFAFA;" width="3.96" height="3.96"/>
			
				<rect x="133.834" y="253.84" transform="matrix(-1 -1.224647e-16 1.224647e-16 -1 271.6289 511.6407)" style="fill:#FAFAFA;" width="3.96" height="3.96"/>
			
				<rect x="126.163" y="253.84" transform="matrix(-1 -1.224647e-16 1.224647e-16 -1 256.2871 511.6407)" style="fill:#FAFAFA;" width="3.96" height="3.96"/>
			
				<rect x="118.493" y="253.84" transform="matrix(-1 -1.224647e-16 1.224647e-16 -1 240.9454 511.6407)" style="fill:#F0F0F0;" width="3.96" height="3.96"/>
			
				<rect x="141.505" y="261.036" transform="matrix(-1 -1.224647e-16 1.224647e-16 -1 286.9707 526.0322)" style="fill:#F0F0F0;" width="3.96" height="3.96"/>
			
				<rect x="133.834" y="261.036" transform="matrix(-1 -1.224647e-16 1.224647e-16 -1 271.6289 526.0322)" style="fill:#F0F0F0;" width="3.96" height="3.96"/>
			
				<rect x="126.163" y="261.036" transform="matrix(-1 -1.224647e-16 1.224647e-16 -1 256.2871 526.0322)" style="fill:#FAFAFA;" width="3.96" height="3.96"/>
			
				<rect x="118.493" y="261.036" transform="matrix(-1 -1.224647e-16 1.224647e-16 -1 240.9454 526.0322)" style="fill:#FAFAFA;" width="3.96" height="3.96"/>
			
				<rect x="141.505" y="268.232" transform="matrix(-1 -1.224647e-16 1.224647e-16 -1 286.9707 540.4237)" style="fill:#F0F0F0;" width="3.96" height="3.96"/>
			
				<rect x="133.834" y="268.232" transform="matrix(-1 -1.224647e-16 1.224647e-16 -1 271.6289 540.4237)" style="fill:#FAFAFA;" width="3.96" height="3.96"/>
			
				<rect x="126.163" y="268.232" transform="matrix(-1 -1.224647e-16 1.224647e-16 -1 256.2871 540.4237)" style="fill:#FAFAFA;" width="3.96" height="3.96"/>
			
				<rect x="133.834" y="247.621" transform="matrix(-1 -1.224647e-16 1.224647e-16 -1 271.6289 499.2016)" style="fill:#FAFAFA;" width="3.96" height="3.96"/>
			
				<rect x="126.163" y="247.621" transform="matrix(-1 -1.224647e-16 1.224647e-16 -1 256.2871 499.2016)" style="fill:#F0F0F0;" width="3.96" height="3.96"/>
			
				<rect x="118.493" y="268.232" transform="matrix(-1 -1.224647e-16 1.224647e-16 -1 240.9454 540.4237)" style="fill:#F0F0F0;" width="3.96" height="3.96"/>
			
				<rect x="141.505" y="275.427" transform="matrix(-1 -1.224647e-16 1.224647e-16 -1 286.9707 554.8151)" style="fill:#FAFAFA;" width="3.96" height="3.96"/>
			
				<rect x="133.834" y="275.427" transform="matrix(-1 -1.224647e-16 1.224647e-16 -1 271.6289 554.8151)" style="fill:#F0F0F0;" width="3.96" height="3.96"/>
			
				<rect x="126.163" y="275.427" transform="matrix(-1 -1.224647e-16 1.224647e-16 -1 256.2871 554.8151)" style="fill:#F0F0F0;" width="3.96" height="3.96"/>
			
				<rect x="118.493" y="275.427" transform="matrix(-1 -1.224647e-16 1.224647e-16 -1 240.9454 554.8151)" style="fill:#FAFAFA;" width="3.96" height="3.96"/>
			
				<rect x="141.505" y="282.623" transform="matrix(-1 -1.224647e-16 1.224647e-16 -1 286.9707 569.2067)" style="fill:#F0F0F0;" width="3.96" height="3.96"/>
			
				<rect x="133.834" y="282.623" transform="matrix(-1 -1.224647e-16 1.224647e-16 -1 271.6289 569.2067)" style="fill:#FAFAFA;" width="3.96" height="3.96"/>
			
				<rect x="126.163" y="282.623" transform="matrix(-1 -1.224647e-16 1.224647e-16 -1 256.2871 569.2067)" style="fill:#FAFAFA;" width="3.96" height="3.96"/>
			
				<rect x="118.493" y="282.623" transform="matrix(-1 -1.224647e-16 1.224647e-16 -1 240.9454 569.2067)" style="fill:#F0F0F0;" width="3.96" height="3.96"/>
			
				<rect x="141.505" y="289.819" transform="matrix(-1 -1.224647e-16 1.224647e-16 -1 286.9707 583.5981)" style="fill:#F0F0F0;" width="3.96" height="3.96"/>
			
				<rect x="133.834" y="289.819" transform="matrix(-1 -1.224647e-16 1.224647e-16 -1 271.6289 583.5981)" style="fill:#FAFAFA;" width="3.96" height="3.96"/>
			
				<rect x="126.163" y="289.819" transform="matrix(-1 -1.224647e-16 1.224647e-16 -1 256.2871 583.5981)" style="fill:#F0F0F0;" width="3.96" height="3.96"/>
			
				<rect x="118.493" y="289.819" transform="matrix(-1 -1.224647e-16 1.224647e-16 -1 240.9454 583.5981)" style="fill:#FAFAFA;" width="3.96" height="3.96"/>
			
				<rect x="141.505" y="297.015" transform="matrix(-1 -1.224647e-16 1.224647e-16 -1 286.9707 597.9896)" style="fill:#FAFAFA;" width="3.96" height="3.96"/>
			
				<rect x="133.834" y="297.015" transform="matrix(-1 -1.224647e-16 1.224647e-16 -1 271.6289 597.9896)" style="fill:#FAFAFA;" width="3.96" height="3.96"/>
			
				<rect x="126.163" y="297.015" transform="matrix(-1 -1.224647e-16 1.224647e-16 -1 256.2871 597.9896)" style="fill:#F0F0F0;" width="3.96" height="3.96"/>
			
				<rect x="118.493" y="297.015" transform="matrix(-1 -1.224647e-16 1.224647e-16 -1 240.9454 597.9896)" style="fill:#F0F0F0;" width="3.96" height="3.96"/>
		</g>
		<g>
			<rect x="337.625" y="271.345" style="fill:#F0F0F0;" width="27.71" height="34.003"/>
			<polygon style="fill:#E6E6E6;" points="340.037,275.116 346.483,275.116 348.257,275.116 350.031,275.116 350.031,278.664 
				348.257,278.664 346.483,278.664 340.037,278.664 			"/>
			<polygon style="fill:#FAFAFA;" points="340.037,281.988 346.483,281.988 348.257,281.988 350.031,281.988 350.031,285.535 
				348.257,285.535 346.483,285.535 340.037,285.535 			"/>
			<polygon style="fill:#E6E6E6;" points="340.037,288.859 346.483,288.859 348.257,288.859 350.031,288.859 350.031,292.407 
				348.257,292.407 346.483,292.407 340.037,292.407 			"/>
			<polygon style="fill:#FAFAFA;" points="340.037,295.731 346.483,295.731 349.224,295.731 350.031,295.731 350.031,299.278 
				349.224,299.278 346.483,299.278 340.037,299.278 			"/>
			<polygon style="fill:#FAFAFA;" points="352.929,275.116 359.375,275.116 361.149,275.116 362.923,275.116 362.923,278.664 
				361.149,278.664 359.375,278.664 352.929,278.664 			"/>
			<polygon style="fill:#FAFAFA;" points="352.929,281.988 359.375,281.988 361.876,281.988 362.923,281.988 362.923,285.535 
				361.876,285.535 359.375,285.535 352.929,285.535 			"/>
			<polygon style="fill:#E6E6E6;" points="352.929,288.859 359.375,288.859 361.149,288.859 362.923,288.859 362.923,292.407 
				361.149,292.407 359.375,292.407 352.929,292.407 			"/>
			<polygon style="fill:#FAFAFA;" points="352.929,295.731 359.375,295.731 361.149,295.731 362.923,295.731 362.923,299.278 
				361.149,299.278 359.375,299.278 352.929,299.278 			"/>
		</g>
		<g>
			<rect x="206.633" y="284.221" style="fill:#F0F0F0;" width="25.177" height="21.128"/>
			
				<rect x="226.974" y="286.854" transform="matrix(-1 -1.224647e-16 1.224647e-16 -1 457.1722 576.9312)" style="fill:#FAFAFA;" width="3.223" height="3.223"/>
			
				<rect x="220.731" y="286.854" transform="matrix(-1 -1.224647e-16 1.224647e-16 -1 444.6854 576.9312)" style="fill:#FAFAFA;" width="3.223" height="3.223"/>
			
				<rect x="214.488" y="286.854" transform="matrix(-1 -1.224647e-16 1.224647e-16 -1 432.1985 576.9312)" style="fill:#FAFAFA;" width="3.223" height="3.223"/>
			
				<rect x="208.244" y="286.854" transform="matrix(-1 -1.224647e-16 1.224647e-16 -1 419.7116 576.9312)" style="fill:#FAFAFA;" width="3.223" height="3.223"/>
			
				<rect x="226.974" y="292.711" transform="matrix(-1 -1.224647e-16 1.224647e-16 -1 457.1722 588.6446)" style="fill:#FAFAFA;" width="3.223" height="3.223"/>
			
				<rect x="220.731" y="292.711" transform="matrix(-1 -1.224647e-16 1.224647e-16 -1 444.6854 588.6446)" style="fill:#FAFAFA;" width="3.223" height="3.223"/>
			
				<rect x="214.488" y="292.711" transform="matrix(-1 -1.224647e-16 1.224647e-16 -1 432.1985 588.6446)" style="fill:#FAFAFA;" width="3.223" height="3.223"/>
			
				<rect x="208.244" y="292.711" transform="matrix(-1 -1.224647e-16 1.224647e-16 -1 419.7116 588.6446)" style="fill:#E6E6E6;" width="3.223" height="3.223"/>
			
				<rect x="226.974" y="298.567" transform="matrix(-1 -1.224647e-16 1.224647e-16 -1 457.1722 600.358)" style="fill:#E6E6E6;" width="3.223" height="3.223"/>
			
				<rect x="220.731" y="298.567" transform="matrix(-1 -1.224647e-16 1.224647e-16 -1 444.6854 600.358)" style="fill:#E6E6E6;" width="3.223" height="3.223"/>
			
				<rect x="214.488" y="298.567" transform="matrix(-1 -1.224647e-16 1.224647e-16 -1 432.1985 600.358)" style="fill:#FAFAFA;" width="3.223" height="3.223"/>
			
				<rect x="208.244" y="298.567" transform="matrix(-1 -1.224647e-16 1.224647e-16 -1 419.7116 600.358)" style="fill:#E6E6E6;" width="3.223" height="3.223"/>
		</g>
		<g>
			<rect x="178.043" y="268.596" style="fill:#F0F0F0;" width="25.177" height="36.752"/>
			<rect x="192.141" y="270.208" style="fill:#FAFAFA;" width="9.467" height="9.08"/>
			<rect x="179.655" y="270.208" style="fill:#FAFAFA;" width="9.467" height="9.08"/>
			<rect x="192.141" y="281.922" style="fill:#FAFAFA;" width="9.467" height="9.08"/>
			<rect x="179.655" y="281.922" style="fill:#FAFAFA;" width="9.467" height="9.08"/>
			<rect x="192.141" y="293.635" style="fill:#FAFAFA;" width="9.467" height="9.08"/>
			<rect x="179.655" y="293.635" style="fill:#FAFAFA;" width="9.467" height="9.08"/>
		</g>
	</g>
</g>
<g id="Background_Simple" style="display:none;">
	<g style="display:inline;">
		<path style="fill:#407BFF;" d="M114.418,250.427c-2.347-29.829-60.207-78.755-39.847-103.592
			c25.303-30.867,121.482,12.944,164.509,4.512c46.143-9.042,126.407-93.044,167.016-73.463
			c48.185,23.234-17.618,135.665-10.871,182.543c3.793,26.351,50.049,84.761,29.13,104.998
			c-33.099,32.02-134.752-20.11-184.42-16.552c-38.581,2.764-128.067,53.311-154.773,30.125
			C57.517,354.998,117.073,284.163,114.418,250.427z"/>
		<path style="opacity:0.9;fill:#FFFFFF;" d="M114.418,250.427c-2.347-29.829-60.207-78.755-39.847-103.592
			c25.303-30.867,121.482,12.944,164.509,4.512c46.143-9.042,126.407-93.044,167.016-73.463
			c48.185,23.234-17.618,135.665-10.871,182.543c3.793,26.351,50.049,84.761,29.13,104.998
			c-33.099,32.02-134.752-20.11-184.42-16.552c-38.581,2.764-128.067,53.311-154.773,30.125
			C57.517,354.998,117.073,284.163,114.418,250.427z"/>
	</g>
</g>
<g id="Shadow_1_">
	<ellipse id="_x3C_Path_x3E__359_" style="fill:#F5F5F5;" cx="250" cy="416.238" rx="193.889" ry="11.323"/>
</g>
<g id="Sheet">
	<g>
		<g>
			<polygon style="fill:#407BFF;" points="444.57,79.61 444.57,299.85 418.07,326.35 264.66,326.35 264.66,79.61 			"/>
			<polygon style="opacity:0.8;fill:#FFFFFF;enable-background:new    ;" points="444.57,79.61 444.57,299.85 418.07,326.35 
				264.66,326.35 264.66,79.61 			"/>
		</g>
		<polyline style="opacity:0.2;enable-background:new    ;" points="418.07,326.35 418.07,300.626 444.57,300.626 418.587,326.609 
					"/>
		<g>
			<path style="opacity:0.1;enable-background:new    ;" d="M332.741,100.978h-49.623c-1.454,0-2.633-1.179-2.633-2.633l0,0
				c0-1.454,1.179-2.633,2.633-2.633h49.623c1.454,0,2.633,1.179,2.633,2.633l0,0C335.374,99.799,334.195,100.978,332.741,100.978z"
				/>
			<path style="opacity:0.1;enable-background:new    ;" d="M422.741,122.336H303.118c-1.454,0-2.633-1.179-2.633-2.633l0,0
				c0-1.454,1.179-2.633,2.633-2.633h119.623c1.454,0,2.633,1.179,2.633,2.633l0,0C425.374,121.157,424.195,122.336,422.741,122.336
				z"/>
			<path style="opacity:0.1;enable-background:new    ;" d="M422.741,132.709H283.118c-1.454,0-2.633-1.179-2.633-2.633l0,0
				c0-1.454,1.179-2.633,2.633-2.633h139.623c1.454,0,2.633,1.179,2.633,2.633l0,0C425.374,131.53,424.195,132.709,422.741,132.709z
				"/>
			<path style="opacity:0.1;enable-background:new    ;" d="M422.741,144.426H283.118c-1.454,0-2.633-1.179-2.633-2.633l0,0
				c0-1.454,1.179-2.633,2.633-2.633h139.623c1.454,0,2.633,1.179,2.633,2.633l0,0C425.374,143.247,424.195,144.426,422.741,144.426
				z"/>
			<path style="opacity:0.1;enable-background:new    ;" d="M422.741,156.144H283.118c-1.454,0-2.633-1.179-2.633-2.633l0,0
				c0-1.454,1.179-2.633,2.633-2.633h139.623c1.454,0,2.633,1.179,2.633,2.633l0,0C425.374,154.965,424.195,156.144,422.741,156.144
				z"/>
			<path style="opacity:0.1;enable-background:new    ;" d="M422.741,167.861H283.118c-1.454,0-2.633-1.179-2.633-2.633l0,0
				c0-1.454,1.179-2.633,2.633-2.633h139.623c1.454,0,2.633,1.179,2.633,2.633l0,0C425.374,166.682,424.195,167.861,422.741,167.861
				z"/>
			<path style="opacity:0.1;enable-background:new    ;" d="M422.741,179.578H283.118c-1.454,0-2.633-1.179-2.633-2.633l0,0
				c0-1.454,1.179-2.633,2.633-2.633h139.623c1.454,0,2.633,1.179,2.633,2.633l0,0C425.374,178.4,424.195,179.578,422.741,179.578z"
				/>
			<path style="opacity:0.1;enable-background:new    ;" d="M422.741,191.296H283.118c-1.454,0-2.633-1.179-2.633-2.633v0
				c0-1.454,1.179-2.633,2.633-2.633h139.623c1.454,0,2.633,1.179,2.633,2.633v0C425.374,190.117,424.195,191.296,422.741,191.296z"
				/>
			<path style="opacity:0.1;enable-background:new    ;" d="M422.741,203.013H283.118c-1.454,0-2.633-1.179-2.633-2.633l0,0
				c0-1.454,1.179-2.633,2.633-2.633h139.623c1.454,0,2.633,1.179,2.633,2.633l0,0C425.374,201.835,424.195,203.013,422.741,203.013
				z"/>
			<path style="opacity:0.1;enable-background:new    ;" d="M422.741,214.731H283.118c-1.454,0-2.633-1.179-2.633-2.633l0,0
				c0-1.454,1.179-2.633,2.633-2.633h139.623c1.454,0,2.633,1.179,2.633,2.633l0,0C425.374,213.552,424.195,214.731,422.741,214.731
				z"/>
			<path style="opacity:0.1;enable-background:new    ;" d="M422.741,226.448H283.118c-1.454,0-2.633-1.179-2.633-2.633l0,0
				c0-1.454,1.179-2.633,2.633-2.633h139.623c1.454,0,2.633,1.179,2.633,2.633l0,0C425.374,225.27,424.195,226.448,422.741,226.448z
				"/>
			<path style="opacity:0.1;enable-background:new    ;" d="M422.741,238.166H283.118c-1.454,0-2.633-1.179-2.633-2.633l0,0
				c0-1.454,1.179-2.633,2.633-2.633h139.623c1.454,0,2.633,1.179,2.633,2.633l0,0C425.374,236.987,424.195,238.166,422.741,238.166
				z"/>
			<path style="opacity:0.1;enable-background:new    ;" d="M342.741,249.883h-59.623c-1.454,0-2.633-1.179-2.633-2.633l0,0
				c0-1.454,1.179-2.633,2.633-2.633h59.623c1.454,0,2.633,1.179,2.633,2.633l0,0C345.374,248.704,344.195,249.883,342.741,249.883z
				"/>
		</g>
		<g>
			<g>
				<path style="fill:#407BFF;" d="M411.947,133.583c-0.058-0.051-0.121-0.104-0.191-0.158c-0.534-0.418-0.85-0.278-1.098-1.061
					c-0.183-0.576,0.025-1.213-0.205-1.808c-0.39-1.009-1.105-1.989-1.632-2.936c-0.822-1.475-1.644-2.951-2.466-4.426
					c-1.138-2.043-3.726-2.779-5.768-1.641l-22.648,12.617c-0.092,0.76-0.721,1.279-0.845,2.042
					c-0.069,0.427,0.036,0.908,0.371,1.181c-0.281,0.02-0.466-0.124-0.695-0.252c-1.349-0.75-1.711-1.35-3.103-0.591
					c-0.596,0.325-1.186,0.661-1.779,0.991c-2.004,1.117-4.009,2.233-6.013,3.35c-6.267,3.491-12.533,6.982-18.8,10.473
					c-7.346,4.092-14.692,8.185-22.038,12.277c-6.108,3.403-12.216,6.805-18.324,10.208c-2.498,1.392-5.536,2.609-7.76,4.378
					c0.622,0.327,0.723,0.811,0.176,1.293c-0.347,0.305-0.693,0.61-1.04,0.915c-0.011,0.244,0.367,0.243,0.591,0.146
					c0.413-0.178,0.827-0.356,1.24-0.534c-0.856,1.094-1.896,2.043-3.064,2.795c-1.911,1.231-4.116,1.914-6.289,2.582
					c0.354-0.445,0.708-0.89,1.062-1.335c0.086-0.109,0.177-0.251,0.117-0.376c-0.055-0.114-0.201-0.141-0.327-0.154
					c-0.524-0.054-1.053-0.005-1.451-0.391c-3.418,2.046-6.987,3.901-10.474,5.844c-2.043,1.138-2.779,3.726-1.641,5.768
					l22.833,40.988c1.138,2.043,3.726,2.779,5.768,1.641l6.147-3.424c0.013-0.712,0.56-1.501,0.143-2.158
					c-0.053-0.083-0.118-0.167-0.117-0.265c0.001-0.132,0.12-0.229,0.231-0.301c0.611-0.395,1.328-0.623,2.055-0.656
					c0.245-0.011,0.582,0.103,0.535,0.344c0.041-0.214,1.293-0.681,1.507-0.746c0.097,0.542-0.273,1.123,0.358,1.232
					c0.508,0.088,1.588-0.959,2.036-1.209c2.005-1.117,4.009-2.233,6.013-3.35c6.324-3.523,12.649-7.046,18.973-10.569
					c6.946-3.869,13.892-7.739,20.837-11.608c4.608-2.567,9.216-5.134,13.824-7.701c0.508-0.283,1.089-0.623,1.575-0.866
					c0.21-0.765,0.598-1.948,1.278-2.422c0.993-0.692,2.576,0.068,3.416-0.913c0.159-0.186,0.256-0.418,0.398-0.617
					c0.243-0.34,0.606-0.572,0.96-0.794c0.256-0.161,0.53-0.327,0.833-0.326c0.302,0.001,0.624,0.248,0.585,0.548
					c2.064-0.48,3.922-1.863,5.743-2.896c0.654-0.372,6.45-3.092,6.424-3.521c-0.081-1.333,0.736-2.471,0.695-3.843
					c-0.008-0.259-0.511-1.992-0.281-2.129c-5.205,3.097-10.606,5.917-15.9,8.866c-0.181,0.101-0.86,0.337-0.956,0.533
					c-0.024,0.049-0.051,0.096-0.074,0.145c-0.051,0.108-0.101,0.217-0.15,0.327c-0.012,0.028-0.025,0.056-0.037,0.084
					c-0.254,0.631-0.443,1.384-0.76,1.98c-0.047,0.088-1.132,1.487-1.221,1.157c-0.439-1.611-1.047-1.862-2.232-1.2
					c-0.585,0.327-1.171,0.652-1.756,0.978c-1.865,1.039-3.729,2.077-5.594,3.116c-6.277,3.497-12.555,6.994-18.832,10.491
					c-7.396,4.12-14.793,8.24-22.189,12.361c-6.164,3.434-12.328,6.867-18.492,10.301c-2.581,1.438-5.162,2.875-7.742,4.313
					c-1.558-2.797-3.116-5.593-4.674-8.39c-1.001-1.796-2.001-3.592-3.002-5.388c-0.363-0.652-0.706-1.566-1.314-2.014
					c-0.434-0.319-1.161-0.24-1.547-0.531c-0.929-0.702-1.597-2.015-2.479-2.829c-0.6-0.554-1.513-2.234-1.257-3.162
					c0.3,0.118,0.596,0.241,0.901,0.339c-0.146-0.656-0.144-1.213,0.099-1.865c-3.021-5.045-5.766-10.334-8.636-15.486
					c-0.009-0.016-0.186-0.334-0.186-0.334c2.335-1.301,4.67-2.602,7.005-3.902c1.705-0.95,3.409-1.899,5.114-2.849
					c0.915-0.51,2.159-0.958,2.955-1.646c0.651-0.562,1.302-1.264,2.039-1.865c0.449-0.366,0.974-0.623,1.494-0.877
					c0.63-0.307,1.26-0.615,1.89-0.922c0.101-0.049,0.207-0.1,0.32-0.099c0.116,0,0.224,0.055,0.337,0.078
					c1.012,0.211,3.479-1.64,4.376-2.14c1.938-1.08,3.877-2.16,5.815-3.24c5.853-3.261,11.707-6.521,17.56-9.782
					c7.294-4.063,14.588-8.126,21.882-12.19c7.301-4.067,14.602-8.134,21.902-12.201c5.874-3.272,11.748-6.544,17.622-9.816
					c3.013-1.679,6.027-3.357,9.04-5.036c0.138-0.077,0.277-0.154,0.415-0.231c0,0,9.653,17.328,9.731,17.469
					c0.558,1.001,1.659,2.363,2.755,2.722c0.393,0.129,0.843,0.405,0.8,0.817c-0.045,0.438-0.651,0.752-0.513,1.17
					c0.158,0.478,0.905,0.266,1.093,0.646c0.235,0.475-0.311,0.977-0.251,1.521c0.059,0.532,0.648,1.261,0.906,1.725
					c0.945,1.696,1.889,3.391,2.834,5.087c1.576,2.829,3.151,5.657,4.738,8.506l-17.305,9.64c0.084,0.068,0.159,0.15,0.21,0.251
					c0.037,0.073,0.062,0.15,0.088,0.227c0.364,0.098,0.717,0.288,1.047,0.436c0.282,0.126,0.445,0.496,0.439,0.787
					c-0.007,0.315-0.183,0.608-0.458,0.761l-1.063,0.592c-0.086,0.469-0.424,0.853-0.909,0.953c-0.12,0.025-0.245,0.026-0.37,0.031
					c-0.206,0.146-0.462,0.212-0.743,0.145c-0.448-0.107-0.772-0.662-0.614-1.103c0.04-0.112,0.097-0.203,0.156-0.289
					c-0.153-0.288-0.144-0.646,0.063-0.934c-0.108-0.013-0.215-0.017-0.324-0.04c-0.175-0.037-0.343-0.097-0.513-0.151
					c-1.086,0.605-1.389,1.286-2.02,2.366c-0.033,0.056-0.067,0.119-0.055,0.183c0.027,0.141,0.221,0.149,0.35,0.211
					c0.295,0.143,0.228,0.583,0.08,0.875c-0.148,0.292-0.328,0.656-0.133,0.919c0.07,0.094,0.177,0.153,0.255,0.241
					c0.423,0.482-0.231,1.904,0.814,1.322c-0.081-0.287-0.012-0.655,0.137-0.906c0.165-0.279,0.454-0.485,0.764-0.567
					c0.772-0.204,1.569-0.293,2.368-0.348l20.832-11.605c2.043-1.138,2.779-3.726,1.641-5.768c-0.04-0.072-0.08-0.143-0.12-0.215
					c-3.14-5.637-6.28-11.274-9.421-16.911c-1.814-3.257-3.629-6.515-5.443-9.772c-0.523-0.939-1.016-1.903-1.573-2.823
					C412.407,134.089,412.244,133.848,411.947,133.583z"/>
			</g>
			<g>
				<path style="fill:#407BFF;" d="M315.663,188.831c-0.694-0.836-0.481-0.859-0.616-1.764c-0.004-0.021-0.009-0.042-0.014-0.062
					c-0.026-0.027-0.049-0.056-0.078-0.08c-0.049-0.041-0.085-0.095-0.125-0.145c-0.469,0.21-0.938,0.438-1.406,0.699l-9.211,5.131
					c0,0,3.706,6.653,3.706,6.653c-0.516-0.926,1.321-0.655,1.39-0.664c0.204-0.027,0.402-0.122,0.605-0.096
					c0.199,0.025,0.366,0.163,0.489,0.322c0.471,0.607,0.398,1.459,0.319,2.223c-0.107,1.042,0.416,2.041-0.156,2.99
					c0.49,0.8,4.926,8.857,4.941,8.848c0.001,0,9.211-5.131,9.211-5.131c0.533-0.297,1.792-0.823,2.103-1.358
					c0.224-0.385-0.176-1.354,0.373-1.611c0.369-0.171,0.977-0.09,1.264,0.123c3.675-3.629,4.279-9.061,1.794-13.521
					c-2.589-4.647-8.469-7.414-13.624-5.257c-0.36,0.151,0.123,1.759-0.742,1.942c0.16-0.326,0.402-0.604,0.696-0.82
					 M322.34,204.032c0,0-4.287,2.388-4.287,2.388c-0.348-0.625-0.69-1.257-1.051-1.874c0.451,0.769-0.789,0.527-1.047,0.354
					c-0.635-0.424-0.804-1.629-0.823-2.312c-0.037-1.365-0.357-2.054-1.038-3.276c-1.014-1.821-2.029-3.643-3.044-5.464l4.287-2.388
					c4.026-2.243,8.002-1.307,10.164,2.574C327.664,197.916,326.367,201.789,322.34,204.032z"/>
				<path style="fill:#407BFF;" d="M346.113,171.796c0.202,0.496,0.29,0.995,0.182,1.525c-0.057,0.281-0.502,1.018-0.441,1.175
					c0.156,0.4,0.313,0.801,0.469,1.201c0.025,0.065,0.052,0.132,0.104,0.179c0.07,0.063,0.17,0.076,0.263,0.085
					c1.587,0.135,1.524,0.303,1.624,1.639c0.086,1.146,1.079,1.807,1.64,2.815c2.145,3.852,0.891,8.005-2.73,10.022
					c-2.074,1.155-4.334,1.277-6.291,0.45c-0.042,0.035-0.079,0.082-0.124,0.107c-0.198,0.111-0.46,0.143-0.679,0.079
					c-1.044-0.305-1.897-1.151-2.111-2.234c-0.016-0.081-0.007-0.158-0.004-0.235c-0.269-0.345-0.523-0.714-0.749-1.121
					c-2.146-3.853-0.892-8.005,2.729-10.022c1.343-0.748,2.761-1.038,4.128-0.943c-0.029-0.039-0.058-0.078-0.087-0.117
					c-0.858-1.143,2.249-1.598,0.844-2.365c-0.587-0.321-0.485-1.773-0.636-2.367c-2.135,0.034-4.35,0.61-6.475,1.794
					c-6.401,3.566-8.609,10.641-5.253,16.666c1.434,2.573,3.749,4.589,6.558,5.516c0.591,0.195,1.45,0.536,2.08,0.479
					c0.817-0.073,0.421,0.051,0.763-0.491c0.312-0.494,0.145-0.701,0.67-1.217c0.518-0.508,1.151-0.836,1.266-1.635
					c-0.027,0.356,0.399,0.617,0.397,0.975c0,0.107-0.04,0.212-0.032,0.319c0.01,0.131,0.092,0.244,0.171,0.349
					c0.344,0.46,0.907,0.964,0.921,1.526c1.413-0.174,2.891-0.819,4.141-1.516c6.373-3.55,8.626-10.612,5.253-16.666
					C353.014,174.733,349.707,172.004,346.113,171.796z"/>
				<path style="fill:#407BFF;" d="M366.557,157.88l6.858,12.311l-16.938-6.695l-3.882,2.162c2.62,4.704,5.404,9.355,7.867,14.139
					c0.168-0.514,0.57-0.616,1.046-0.682c0.897-0.126,0.867,0.325,1.364,1.22c0.056,0.102,0.127,0.214,0.241,0.237
					c0.175,0.034,0.328-0.165,0.505-0.145c0.176,0.02,0.254,0.248,0.206,0.419c-0.048,0.17-0.175,0.306-0.257,0.463
					c-0.289,0.549,0.194,0.906,0.129,1.4c-0.035,0.267-0.866,1.322-0.767,1.5c0,0,0.961,1.725,0.961,1.725l4.635-2.582l-1.24-2.225
					c-0.074,0.01-0.148,0.025-0.223,0.034c-1.354,0.175-0.758-1.591-1.05-2.319c-0.409-1.021-1.116-2.003-1.651-2.964
					c-0.898-1.612-1.796-3.224-2.694-4.837l13.776,5.423c0.025-0.405-0.057-0.823,0.138-1.177c0.111-0.203,0.973-0.596,0.957-0.801
					c0.048,0.638,0.355,1.253,0.837,1.673c0.536,0.467,0.536,0.401,0.43,1.235l0.829,0.326l3.853-2.146l-11.295-20.276
					L366.557,157.88z"/>
				<path style="fill:#407BFF;" d="M389.867,166.529l-2.614-4.693l9.414-5.244l-2.033-3.65l-9.414,5.244l-2.453-4.403l6.365-3.546
					c0.248-0.345,0.597-0.615,0.97-0.825c0.204-0.115,0.427-0.125,0.634-0.068c0,0,2.691-1.499,2.691-1.499
					c0,0-1.903-3.408-2.089-3.765c-0.92,0.42-0.002,1.578-0.928,2.137c0.186,0.201,0.475,0.916-0.033,0.961
					c-0.271,0.024-0.464-0.338-0.734-0.308c-0.149,0.017-0.281,0.154-0.427,0.119c-0.084-0.02-0.144-0.093-0.19-0.166
					c-0.176-0.279-0.249-0.627-0.487-0.856c-0.629-0.606-6.376,3.218-7.184,3.668c-1.783,0.993-3.567,1.987-5.35,2.98l11.295,20.276
					l4.507-2.511c0.031-0.04,0.063-0.081,0.094-0.122c0.324-0.42,0.645-0.846,1.002-1.239c0.272-0.3,0.745-0.312,1.081-0.132
					c0.078,0.042,0.144,0.101,0.203,0.167l8.813-4.909l-2.098-3.766L389.867,166.529z"/>
			</g>
		</g>
	</g>
</g>
<g id="Plant">
	<g>
		<path style="fill:#407BFF;" d="M401.896,382.215c0,0-6.576-14.349,0.938-28.494c7.514-14.145,9.692-17.477,4.902-20.375
			c-4.79-2.898-6.987,11.315-6.987,11.315s-4.038-9.778-0.704-20.012c3.334-10.233,5.424-26.901,0.871-28.689
			c-4.553-1.788-0.869,20.793-4.82,28.49c0,0-3.318-8.568-3.864-16.788c-0.546-8.219,0.307-21.344-3.288-24.711
			c-3.595-3.367-5.899-1.037-2.365,17.101c3.533,18.139,3.507,32.884,3.507,32.884s-7.804-23.794-13.041-24.488
			c-5.237-0.694-5.231,7.012-0.747,13.695c4.483,6.684,13.129,18.656,14.547,24.817c0,0-8.566-17.906-16.271-12.418
			c-7.705,5.488,6.707,16.304,13.13,20.212c6.423,3.908,10.884,28.406,10.884,28.406L401.896,382.215z"/>
		<path style="opacity:0.2;enable-background:new    ;" d="M401.896,382.215c0,0-6.576-14.349,0.938-28.494
			c7.514-14.145,9.692-17.477,4.902-20.375c-4.79-2.898-6.987,11.315-6.987,11.315s-4.038-9.778-0.704-20.012
			c3.334-10.233,5.424-26.901,0.871-28.689c-4.553-1.788-0.869,20.793-4.82,28.49c0,0-3.318-8.568-3.864-16.788
			c-0.546-8.219,0.307-21.344-3.288-24.711c-3.595-3.367-5.899-1.037-2.365,17.101c3.533,18.139,3.507,32.884,3.507,32.884
			s-7.804-23.794-13.041-24.488c-5.237-0.694-5.231,7.012-0.747,13.695c4.483,6.684,13.129,18.656,14.547,24.817
			c0,0-8.566-17.906-16.271-12.418c-7.705,5.488,6.707,16.304,13.13,20.212c6.423,3.908,10.884,28.406,10.884,28.406
			L401.896,382.215z"/>
		<path style="fill:#407BFF;" d="M396.704,388.099c0,0,6.404-14.445-1.279-28.477c-7.683-14.032-9.901-17.331-5.146-20.3
			c4.755-2.969,7.122,11.21,7.122,11.21s3.92-9.837,0.464-20.02c-3.456-10.183-5.747-26.818-1.216-28.673
			c4.531-1.856,1.118,20.778,5.161,28.415c0,0,3.215-8.617,3.663-16.844c0.447-8.227-0.563-21.338,2.992-24.758
			c3.555-3.42,5.886-1.125,2.57,17.065c-3.315,18.19-3.113,32.933-3.113,32.933s7.518-23.908,12.746-24.68
			c5.229-0.772,5.315,6.933,0.912,13.683c-4.403,6.75-12.904,18.851-14.248,25.032c0,0,8.35-18.032,16.121-12.66
			c7.771,5.373-6.511,16.402-12.887,20.406c-6.376,4.003-10.542,28.566-10.542,28.566L396.704,388.099z"/>
		<g>
			<polygon style="fill:#263238;" points="426.24,377.802 373.339,377.802 377.62,415.658 421.958,415.658 			"/>
		</g>
	</g>
</g>
<g id="Speech_bubble">
	<g>
		<path style="fill:#407BFF;" d="M155.634,139.754h-34.916c-2.797,0-5.065,2.268-5.065,5.065v33.941
			c0,2.797,2.268,5.065,5.065,5.065h11.174l-7.523,10.225l13.009-10.225h18.256c2.797,0,5.065-2.268,5.065-5.065v-33.941
			C160.699,142.022,158.431,139.754,155.634,139.754z"/>
		<path style="opacity:0.6;fill:#FFFFFF;enable-background:new    ;" d="M155.634,139.754h-34.916c-2.797,0-5.065,2.268-5.065,5.065
			v33.941c0,2.797,2.268,5.065,5.065,5.065h11.174l-7.523,10.225l13.009-10.225h18.256c2.797,0,5.065-2.268,5.065-5.065v-33.941
			C160.699,142.022,158.431,139.754,155.634,139.754z"/>
		<circle style="fill:#407BFF;enable-background:new    ;" cx="138.176" cy="161.79" r="15.851"/>
		
			<ellipse transform="matrix(0.2298 -0.9732 0.9732 0.2298 -51.0321 259.0977)" style="opacity:0.2;enable-background:new    ;" cx="138.176" cy="161.79" rx="13.589" ry="13.589"/>
		<g>
			<path style="fill:#FFFFFF;" d="M136.488,168.285c-0.363,0-0.711-0.142-0.971-0.397l-5.767-5.65
				c-0.547-0.536-0.556-1.414-0.02-1.962c0.536-0.548,1.415-0.556,1.962-0.02l4.73,4.635l8.176-9.134
				c0.512-0.571,1.389-0.618,1.959-0.108c0.571,0.511,0.619,1.388,0.108,1.959l-9.144,10.215c-0.253,0.282-0.61,0.449-0.988,0.461
				C136.518,168.284,136.503,168.285,136.488,168.285z"/>
		</g>
	</g>
</g>
<g id="Character">
	<g>
		<path style="fill:#263238;" d="M92.899,392.916l28.813-2.832v-32.492h11.419v32.481l28.929,2.843
			c2.872,0.282,5.061,2.697,5.061,5.583v4.327h-38.583h-2.116H87.838v-4.327C87.838,395.613,90.027,393.198,92.899,392.916z"/>
		<path style="opacity:0.1;fill:#FFFFFF;enable-background:new    ;" d="M92.899,392.916l28.813-2.832v-32.492h11.419v32.481
			l28.929,2.843c2.872,0.282,5.061,2.697,5.061,5.583v4.327h-38.583h-2.116H87.838v-4.327
			C87.838,395.613,90.027,393.198,92.899,392.916z"/>
		<circle style="fill:#263238;" cx="164.072" cy="408.192" r="7.466"/>
		<circle style="fill:#263238;" cx="90.887" cy="408.192" r="7.466"/>
		<path style="fill:#263238;" d="M123.879,366.295h7.086c2.283,0,4.133-1.85,4.133-4.133v-31.933h-15.352v31.933
			C119.745,364.445,121.596,366.295,123.879,366.295z"/>
		<path style="opacity:0.2;fill:#FFFFFF;enable-background:new    ;" d="M123.879,366.295h7.086c2.283,0,4.133-1.85,4.133-4.133
			v-31.933h-15.352v31.933C119.745,364.445,121.596,366.295,123.879,366.295z"/>
		<path style="fill:#263238;" d="M87.542,267.623c0,0,8.556,53.411,25.437,62.607H95.815c0,0-16.954-18.196-22.119-62.607H87.542z"
			/>
		<path style="opacity:0.1;fill:#FFFFFF;enable-background:new    ;" d="M87.542,267.623c0,0,8.556,53.411,25.437,62.607H95.815
			c0,0-16.954-18.196-22.119-62.607H87.542z"/>
		<path style="fill:#407BFF;" d="M161.891,322.678H94.97c-2.761,0-5,2.239-5,5v6.689h76.921v-6.689
			C166.891,324.917,164.652,322.678,161.891,322.678z"/>
		<g>
			<path style="fill:#263238;" d="M168.086,328.523H88.775c-1.111,0-2.011,0.9-2.011,2.011v1.822c0,1.111,0.9,2.011,2.011,2.011
				h79.311c1.111,0,2.011-0.901,2.011-2.011v-1.822C170.097,329.423,169.197,328.523,168.086,328.523z"/>
			<path style="opacity:0.6;fill:#FFFFFF;enable-background:new    ;" d="M168.086,328.523H88.775c-1.111,0-2.011,0.9-2.011,2.011
				v1.822c0,1.111,0.9,2.011,2.011,2.011h79.311c1.111,0,2.011-0.901,2.011-2.011v-1.822
				C170.097,329.423,169.197,328.523,168.086,328.523z"/>
		</g>
		<path style="fill:#407BFF;" d="M71.669,278.475h27.495c8.054,0,13.286-6.459,11.685-14.426l-2.137-10.635
			c-1.601-7.967-9.428-14.426-17.483-14.426H63.735c-8.054,0-13.286,6.459-11.685,14.426l2.137,10.635
			C55.787,272.016,63.615,278.475,71.669,278.475z"/>
	</g>
	<g>
		<polygon style="fill:#E4897B;" points="217.537,367.895 211.238,370.359 206.705,361.819 202.587,354.051 209.572,349.866 
			213.789,359.401 		"/>
		<polygon style="opacity:0.2;enable-background:new    ;" points="213.789,359.401 206.705,361.819 202.587,354.051 
			209.572,349.866 		"/>
		<g>
			<path style="fill:#263238;" d="M212.482,354.743l-8.573,4.6c0,0-32.388-56.95-37.37-56.477
				c-4.982,0.473-52.231,30.588-66.64,19.467c-14.408-11.111-0.388-44.603-0.388-44.603s29.808-8.519,33.04-1.968
				c0.628,1.266,1.472,3.805,2.135,5.985c0.635,2.053,1.116,3.783,1.116,3.783s0.01-0.001,0.018-0.013
				c0.908-0.367,30.349-12.439,43.492-5.969C192.663,286.133,212.482,354.743,212.482,354.743z"/>
			<path style="opacity:0.3;fill:#FFFFFF;enable-background:new    ;" d="M212.482,354.743l-8.573,4.6
				c0,0-32.388-56.95-37.37-56.477c-4.982,0.473-52.231,30.588-66.64,19.467c-14.408-11.111-0.388-44.603-0.388-44.603
				s29.808-8.519,33.04-1.968c0.628,1.266,1.472,3.805,2.135,5.985c0.635,2.053,1.116,3.783,1.116,3.783s0.01-0.001,0.018-0.013
				c0.908-0.367,30.349-12.439,43.492-5.969C192.663,286.133,212.482,354.743,212.482,354.743z"/>
		</g>
		<polygon style="fill:#E4897B;" points="165.916,401.183 159.196,400.413 159.165,390.929 159.15,382.229 167.276,381.845 
			166.56,392.084 		"/>
		<polygon style="opacity:0.2;enable-background:new    ;" points="166.536,392.292 159.144,391.113 159.14,382.321 
			167.271,381.891 		"/>
		<polygon style="fill:#407BFF;" points="199.718,356.515 212.262,350.232 213.566,355.547 204.07,360.447 		"/>
		<g>
			<path style="fill:#263238;" d="M122.159,322.424c0,0,2.066-0.234,33.752-6.104c0,0,0.715,40.525,2.218,70.729l9.76,0.315
				c0,0,14-67.045,12.356-77.165c-1.644-10.12-13.693-11.492-13.693-11.492S145.636,314.956,122.159,322.424z"/>
			<path style="opacity:0.4;fill:#FFFFFF;enable-background:new    ;" d="M122.159,322.424c0,0,2.066-0.234,33.752-6.104
				c0,0,0.715,40.525,2.218,70.729l9.76,0.315c0,0,14-67.045,12.356-77.165c-1.644-10.12-13.693-11.492-13.693-11.492
				S145.636,314.956,122.159,322.424z"/>
			<path style="opacity:0.3;enable-background:new    ;" d="M122.159,322.424c0,0,2.066-0.234,33.752-6.104
				c0,0,0.715,40.525,2.218,70.729l9.76,0.315c0,0,14-67.045,12.356-77.165c-1.644-10.12-13.693-11.492-13.693-11.492
				S145.636,314.956,122.159,322.424z"/>
		</g>
		<polygon style="fill:#407BFF;" points="156.337,384.349 169.648,384.038 167.827,389.523 157.029,389.621 		"/>
		<path style="opacity:0.3;enable-background:new    ;" d="M135.802,285.531l-17.274,6.15c0,0,9.081-6.78,16.158-9.933
			C135.322,283.801,135.802,285.531,135.802,285.531z"/>
		<g>
			<g>
				<polygon style="fill:#263238;" points="97.508,275.669 98.146,280.458 130.523,273.594 129.769,267.931 				"/>
				<polygon style="opacity:0.2;enable-background:new    ;" points="97.508,275.669 98.146,280.458 130.523,273.594 
					129.769,267.931 				"/>
			</g>
			
				<rect x="107.357" y="272.272" transform="matrix(0.9832 -0.1824 0.1824 0.9832 -48.6039 24.3658)" style="fill:#263238;" width="1.639" height="8.348"/>
			
				<rect x="115.81" y="270.834" transform="matrix(0.9755 -0.2199 0.2199 0.9755 -57.2308 32.9551)" style="fill:#FFFFFF;" width="7.245" height="5.494"/>
			
				<rect x="127.049" y="267.417" transform="matrix(0.9832 -0.1823 0.1823 0.9832 -47.3616 27.8567)" style="fill:#263238;" width="1.639" height="8.348"/>
			
				<rect x="107.357" y="272.272" transform="matrix(0.9832 -0.1824 0.1824 0.9832 -48.6039 24.3658)" style="opacity:0.3;fill:#FFFFFF;enable-background:new    ;" width="1.639" height="8.348"/>
			
				<rect x="127.049" y="267.417" transform="matrix(0.9832 -0.1823 0.1823 0.9832 -47.3616 27.8567)" style="opacity:0.3;fill:#FFFFFF;enable-background:new    ;" width="1.639" height="8.348"/>
		</g>
		<path style="fill:#263238;" d="M230.063,379.065c-1.053-0.319-2.156-0.444-3.254-0.367l0,0c0,0-4.067-1.698-8.979-9.788
			l-4.197,0.552c-1.45,0.216-2.61,1.315-2.904,2.75c-0.043,0.196-0.056,0.397-0.039,0.597c0.182,1.007,0.428,2.002,0.738,2.978
			c0.809,3.085,3.808,9.529,3.808,9.529l0.686-0.279l-2.152-6.08c-0.722-2.067,1.794-0.32,3.125,1.681
			c1.331,2.001,3.217,3.941,7.703,2.245C229.82,380.88,231.888,379.804,230.063,379.065z"/>
		<path style="fill:#E4897B;" d="M216.761,366.76c0,0,6.743,10.238,10.048,11.938c0,0-3.711,2.966-8.657-1.82
			c-6.396-6.19-7.462-4.069-7.462-4.069s-0.096-2.406,0.169-3.626C211.369,366.832,216.761,366.76,216.761,366.76z"/>
		<path style="fill:#263238;" d="M175.973,413.102c-0.947-0.56-1.989-0.942-3.074-1.128l0,0c0,0-3.548-2.614-6.402-11.638
			l-4.208-0.459c-1.46-0.134-2.847,0.658-3.474,1.983c-0.088,0.18-0.149,0.372-0.179,0.571c-0.063,1.022-0.059,2.046,0.01,3.068
			c0.054,3.189,1.439,10.16,1.439,10.16l0.732-0.108l-0.649-6.417c-0.211-2.179,1.819,0.114,2.637,2.374
			c0.818,2.26,2.191,4.591,6.951,4.008C175.307,414.807,177.571,414.252,175.973,413.102z"/>
		<path style="fill:#E4897B;" d="M165.969,397.993c0,0,4.122,11.545,6.931,13.981c0,0-4.308,2.002-7.979-3.821
			c-4.746-7.53-6.284-5.722-6.284-5.722s0.477-2.36,1.024-3.483C160.714,396.784,165.969,397.993,165.969,397.993z"/>
		<g>
			<path style="fill:#E4897B;" d="M90.46,194.004l-8.432,1.701c0,0-1.241,1.028-2.419,0.582c-2.517-0.953-6.147-3.931-6.609-4.96
				c-0.678-1.511,0.006-5.937,1.783-6.734s7.912,6.599,7.912,6.599l9.089-2.053L90.46,194.004z"/>
			<path style="fill:#407BFF;" d="M117.136,222.116c0,0-0.77-27.403-3.941-28.579c-3.171-1.175-26.985,2.098-26.985,2.098
				l-0.585-6.258c0,0,27.74-4.264,33.106-1.74c5.366,2.524,7.137,43.388,6.158,51.258L117.136,222.116z"/>
			<path style="opacity:0.6;fill:#FFFFFF;enable-background:new    ;" d="M117.136,222.116c0,0-0.77-27.403-3.941-28.579
				c-3.171-1.175-26.985,2.098-26.985,2.098l-0.585-6.258c0,0,27.74-4.264,33.106-1.74c5.366,2.524,7.137,43.388,6.158,51.258
				L117.136,222.116z"/>
			<polygon style="fill:#407BFF;" points="86.609,196.244 84.955,189.363 87.326,188.497 88.836,196.45 			"/>
			<polygon style="opacity:0.7;fill:#FFFFFF;enable-background:new    ;" points="86.609,196.244 84.955,189.363 87.326,188.497 
				88.836,196.45 			"/>
		</g>
		<g>
			<path style="fill:#407BFF;" d="M117.007,218.695c0,0-2.122,8.34-12.383,11.007c-10.261,2.666-21.602-4.289-21.602-4.289
				l2.255,19.9l12.566,31.35l32.102-8.372C129.944,268.29,128.015,231.816,117.007,218.695z"/>
			<path style="opacity:0.7;fill:#FFFFFF;enable-background:new    ;" d="M117.007,218.695c0,0-2.122,8.34-12.383,11.007
				c-10.261,2.666-21.602-4.289-21.602-4.289l2.255,19.9l12.566,31.35l32.102-8.372C129.944,268.29,128.015,231.816,117.007,218.695
				z"/>
		</g>
		<g>
			<path style="opacity:0.6;fill:#407BFF;enable-background:new    ;" d="M122.583,251.76l3.76-1.186
				c0.417-0.131,0.648-0.576,0.516-0.993l-2.238-7.095c-0.131-0.417-0.576-0.648-0.993-0.517l-3.76,1.186
				c-0.417,0.132-0.648,0.576-0.517,0.993l2.238,7.095C121.722,251.661,122.166,251.892,122.583,251.76z"/>
			
				<rect x="120.79" y="242.93" transform="matrix(-0.9537 0.3008 -0.3008 -0.9537 314.3651 443.5878)" style="opacity:0.2;enable-background:new    ;" width="4.483" height="6.132"/>
			
				<rect x="121.231" y="240.377" transform="matrix(0.9537 -0.3008 0.3008 0.9537 -67.2137 47.8335)" style="fill:#263238;" width="0.989" height="3.614"/>
		</g>
		<path style="fill:#263238;" d="M95.176,187.548c-7.906,0.005-13.126,8.378-11.28,21.674c1.846,13.296,9.268,17.115,9.268,17.115
			l-0.477-3.204c0,0,11.717,3.032,25.097,1.399c0,0-3.819-10.837-2.581-21.912C115.203,202.618,117.71,187.533,95.176,187.548z"/>
		<path style="opacity:0.2;enable-background:new    ;" d="M110.891,226.965l3.228,11.985l-5.679-4.326
			c0,0,5.526,12.639,6.953,20.02c0,0-4.778-12.535-8.9-19.406l-2.41,6.878l-9.692-9.866
			C94.391,232.25,102.976,225.717,110.891,226.965z"/>
		<path style="fill:#E4897B;" d="M106.165,230.875l-9.852,0.298c4.364-5.596-3.536-15.332-3.536-15.332l9.741,2.111
			c2.323,9.633,6.336,9.926,6.336,9.926L106.165,230.875z"/>
		<path style="opacity:0.2;enable-background:new    ;" d="M105.243,224.87c-4.528-0.407-7.675-2.599-9.78-4.914
			c-1.3-2.405-2.685-4.113-2.685-4.113l9.738,2.113C103.306,221.209,104.285,223.406,105.243,224.87z"/>
		<g>
			<path style="fill:#E4897B;" d="M102.508,191.62c8.495,0.708,10.85,5.484,10.743,14.29c-0.134,11.005-3.207,18.575-13.634,15.353
				C85.456,216.888,88.4,190.444,102.508,191.62z"/>
			<path style="fill:#DE5753;" d="M107.799,204.977c0,0,0.992,2.317,2.178,3.729c0,0-0.824,1.095-2.319,0.774L107.799,204.977z"/>
			<g>
				<path style="fill:#263238;" d="M102.053,203.579l1.837-0.597C103.89,202.982,102.906,204.439,102.053,203.579z"/>
				<path style="fill:#263238;" d="M102.693,203.37c0,0-1.288-0.641-2.029,0.541c0,0,0.837-0.483,1.957-0.05L102.693,203.37z"/>
			</g>
			<path style="fill:#263238;" d="M99.27,199.315c-0.09,0-0.181-0.034-0.251-0.101c-0.144-0.139-0.148-0.368-0.01-0.513
				c1.552-1.613,4.024-1.104,4.129-1.08c0.195,0.042,0.32,0.234,0.278,0.43c-0.042,0.195-0.234,0.319-0.43,0.279
				c-0.022-0.005-2.186-0.445-3.455,0.875C99.46,199.278,99.365,199.315,99.27,199.315z"/>
			<path style="fill:#263238;" d="M112.593,199.474c-0.079,0-0.159-0.025-0.225-0.078c-1.599-1.268-2.949-0.93-3.007-0.915
				c-0.191,0.05-0.391-0.063-0.443-0.255c-0.052-0.192,0.06-0.39,0.252-0.444c0.071-0.019,1.746-0.464,3.649,1.045
				c0.157,0.124,0.183,0.353,0.059,0.509C112.805,199.427,112.699,199.474,112.593,199.474z"/>
			<path style="fill:#263238;" d="M92.031,205.164c0,0,4.553-6.649,4.401-12.087c0,0,17.407-5.475,16.814,11.681
				c0,0,2.909-15.035-11.666-16.59c-14.552-1.553-16.293,19.814-9.282,26.808C92.298,214.976,89.21,209.324,92.031,205.164z"/>
			<path style="fill:#E4897B;" d="M93.269,207.072c0.057-1.372-1.161-3.805-3.728-3.739c-2.656,0.068-4.361,5.368,2.078,7.212
				C92.543,210.81,93.15,209.936,93.269,207.072z"/>
			<g>
				<path style="fill:#263238;" d="M107.725,211.995c-0.72,0.883-1.662,2.644-1.662,2.644c-0.175-0.057-0.35-0.113-0.521-0.179
					c-2.353-0.827-3.171-1.988-3.364-3.024c-0.104-0.567-0.013-1.102,0.115-1.518c0.143-0.483,0.356-0.795,0.356-0.795
					c0.985,1.184,3.119,2.124,4.28,2.578C107.412,211.896,107.725,211.995,107.725,211.995z"/>
				<path style="fill:#FFFFFF;" d="M106.927,211.701l-0.51,0.767c-2.214-0.784-3.668-1.634-4.125-2.549
					c0.143-0.483,0.356-0.795,0.356-0.795C103.633,210.307,105.767,211.247,106.927,211.701z"/>
				<path style="fill:#DE5753;" d="M105.541,214.46c-2.353-0.827-3.171-1.988-3.364-3.024c0.791,0.313,1.71,0.778,2.43,1.436
					C105.16,213.374,105.42,213.938,105.541,214.46z"/>
			</g>
			<path style="fill:#263238;" d="M102.279,192.246c0,0-4.587,13.693-13.373,12.78c-8.786-0.913,6.27-17.479,6.27-17.479
				s14.815-4.223,21.266,3.995c6.451,8.218-3.196,13.215-3.196,13.215S114.689,193.978,102.279,192.246z"/>
			<path style="fill:#263238;" d="M95.277,203.896c-0.101,0-0.195-0.061-0.233-0.161c-0.049-0.129,0.015-0.273,0.144-0.323
				c6.997-2.675,6.841-12.065,6.839-12.16c-0.003-0.138,0.105-0.253,0.244-0.256c0.135,0.023,0.253,0.106,0.256,0.244
				c0.002,0.098,0.164,9.84-7.16,12.64C95.337,203.891,95.307,203.896,95.277,203.896z"/>
			<g>
				<path style="fill:#263238;" d="M110.67,204.413l1.837-0.597C112.506,203.816,111.522,205.273,110.67,204.413z"/>
				<path style="fill:#263238;" d="M111.31,204.205c0,0-1.288-0.641-2.029,0.541c0,0,0.837-0.483,1.957-0.05L111.31,204.205z"/>
			</g>
		</g>
		<polygon style="fill:#407BFF;" points="97.704,227.127 105.126,230.906 105.012,238.441 94.391,232.25 		"/>
		<polygon style="fill:#407BFF;" points="106.264,225.706 106.699,230.28 111.545,235.412 110.891,226.965 		"/>
		<g>
			<path style="fill:#E4897B;" d="M71.931,173.965l-3.1-8.023c0,0,0.199-1.599-0.81-2.353c-2.157-1.61-6.62-3.069-7.736-2.905
				c-1.639,0.241-5.002,3.197-4.718,5.124c0.284,1.927,9.819,3.122,9.819,3.122l3.156,8.767L71.931,173.965z"/>
			<path style="fill:#407BFF;" d="M85.276,245.313c0,0,6.051-4.768,3.612-15.317l-6.45-29.159l-11.081-30.114l-5.42,2.742
				c0,0,9.1,29.421,9.939,31.41c0.432,1.024,2.145,16.271,4.472,26.507C82.489,240.8,85.276,245.313,85.276,245.313z"/>
			<path style="opacity:0.6;fill:#FFFFFF;enable-background:new    ;" d="M85.276,245.313c0,0,6.051-4.768,3.612-15.317
				l-6.45-29.159l-11.081-30.114l-5.42,2.742c0,0,9.1,29.421,9.939,31.41c0.432,1.024,2.145,16.271,4.472,26.507
				C82.489,240.8,85.276,245.313,85.276,245.313z"/>
			<polygon style="fill:#407BFF;" points="64.991,172.602 71.317,169.429 72.698,171.543 65.295,174.817 			"/>
			<polygon style="opacity:0.7;fill:#FFFFFF;enable-background:new    ;" points="64.991,172.602 71.317,169.429 72.698,171.543 
				65.295,174.817 			"/>
		</g>
		<polygon style="opacity:0.6;fill:#FFFFFF;enable-background:new    ;" points="97.704,227.127 105.126,230.906 105.012,238.441 
			94.391,232.25 		"/>
		<polygon style="opacity:0.6;fill:#FFFFFF;enable-background:new    ;" points="106.264,225.706 106.699,230.28 111.545,235.412 
			110.891,226.965 		"/>
	</g>
</g>
<g id="Desk">
	<g>
		<g>
			<rect x="287.297" y="211.415" style="fill:#FFFFFF;" width="29.965" height="23.278"/>
			<rect x="309.582" y="211.415" style="opacity:0.1;enable-background:new    ;" width="7.68" height="23.278"/>
			<polygon style="fill:#407BFF;" points="285.576,255.25 319.451,255.25 319.451,212.995 308.539,212.995 285.576,223.991 			"/>
			<rect x="308.539" y="212.995" style="opacity:0.2;enable-background:new    ;" width="10.911" height="42.255"/>
			<rect x="289.074" y="232.317" style="opacity:0.7;fill:#FFFFFF;enable-background:new    ;" width="15.864" height="7.599"/>
			<rect x="289.074" y="242.462" style="opacity:0.7;fill:#FFFFFF;enable-background:new    ;" width="15.864" height="1.091"/>
			<rect x="309.582" y="245.646" style="opacity:0.7;fill:#FFFFFF;enable-background:new    ;" width="8.813" height="6.446"/>
		</g>
		<g>
			<rect x="274.567" y="210.141" style="fill:#FFFFFF;" width="29.965" height="24.551"/>
			<rect x="296.852" y="210.141" style="opacity:0.1;enable-background:new    ;" width="7.68" height="24.551"/>
			<polygon style="fill:#407BFF;" points="272.846,255.25 306.72,255.25 306.72,212.995 295.809,212.995 272.846,223.991 			"/>
			<rect x="295.809" y="212.995" style="opacity:0.2;enable-background:new    ;" width="10.911" height="42.255"/>
			<rect x="276.344" y="232.317" style="opacity:0.7;fill:#FFFFFF;enable-background:new    ;" width="15.864" height="7.599"/>
			<rect x="276.344" y="242.462" style="opacity:0.7;fill:#FFFFFF;enable-background:new    ;" width="15.864" height="1.091"/>
			<rect x="296.852" y="245.646" style="opacity:0.7;fill:#FFFFFF;enable-background:new    ;" width="8.813" height="6.446"/>
		</g>
		<g>
			<g>
				<polygon style="fill:#263238;" points="251.809,415.658 257.935,415.658 268.942,262.411 260.815,262.411 				"/>
				<polygon style="opacity:0.1;fill:#FFFFFF;enable-background:new    ;" points="251.805,415.658 257.935,415.658 
					268.405,270.023 268.945,262.658 260.815,262.658 260.375,270.023 				"/>
				<polygon style="opacity:0.2;enable-background:new    ;" points="260.375,269.658 268.405,269.658 268.945,262.658 
					260.815,262.658 				"/>
			</g>
			<g>
				<polygon style="fill:#263238;" points="206.85,415.658 212.976,415.658 213.977,262.411 205.85,262.411 				"/>
				<polygon style="opacity:0.1;fill:#FFFFFF;enable-background:new    ;" points="205.845,262.658 206.005,287.383 
					206.845,415.658 212.975,415.658 213.815,287.383 213.975,262.658 				"/>
				<polygon style="opacity:0.2;enable-background:new    ;" points="205.845,262.658 206.005,287.658 213.815,287.658 
					213.975,262.658 				"/>
			</g>
			<g>
				<polygon style="fill:#263238;" points="141.809,415.658 147.935,415.658 158.942,262.411 150.815,262.411 				"/>
				<polygon style="opacity:0.1;fill:#FFFFFF;enable-background:new    ;" points="141.805,415.658 147.935,415.658 
					158.405,270.023 158.945,262.658 150.815,262.658 150.375,270.023 				"/>
				<polygon style="opacity:0.2;enable-background:new    ;" points="150.375,269.658 158.405,269.658 158.945,262.658 
					150.815,262.658 				"/>
			</g>
			<g>
				<polygon style="fill:#263238;" points="321.891,415.658 328.017,415.658 319.012,262.411 310.884,262.411 				"/>
				<polygon style="opacity:0.1;fill:#FFFFFF;enable-background:new    ;" points="310.885,262.658 311.425,270.023 
					321.895,415.658 328.016,415.658 319.455,270.023 319.016,262.658 				"/>
				<polygon style="opacity:0.2;enable-background:new    ;" points="319.016,262.658 310.885,262.658 311.425,269.658 
					319.455,269.658 				"/>
			</g>
			<g>
				<path style="fill:#407BFF;" d="M146.535,266.249h176.757c1.194,0,2.162-0.968,2.162-2.162v-5.514H144.373v5.514
					C144.373,265.281,145.341,266.249,146.535,266.249z"/>
				<path style="opacity:0.4;fill:#FFFFFF;enable-background:new    ;" d="M146.535,266.249h176.757
					c1.194,0,2.162-0.968,2.162-2.162v-5.514H144.373v5.514C144.373,265.281,145.341,266.249,146.535,266.249z"/>
			</g>
			
				<rect x="144.373" y="258.573" transform="matrix(-1 -1.224647e-16 1.224647e-16 -1 469.8265 520.9846)" style="opacity:0.2;enable-background:new    ;" width="181.081" height="3.838"/>
			<g>
				<path style="fill:#407BFF;" d="M140.575,259.574h188.676c1.194,0,2.162-0.968,2.162-2.162l0,0c0-1.194-0.968-2.162-2.162-2.162
					H140.575c-1.194,0-2.162,0.968-2.162,2.162l0,0C138.413,258.606,139.381,259.574,140.575,259.574z"/>
				<path style="opacity:0.4;fill:#FFFFFF;enable-background:new    ;" d="M140.575,259.574h188.676
					c1.194,0,2.162-0.968,2.162-2.162l0,0c0-1.194-0.968-2.162-2.162-2.162H140.575c-1.194,0-2.162,0.968-2.162,2.162l0,0
					C138.413,258.606,139.381,259.574,140.575,259.574z"/>
			</g>
		</g>
		<g>
			<polygon style="fill:#407BFF;" points="288.709,255.234 288.709,251.854 290.978,251.854 288.709,250.535 290.411,250.535 
				288.142,249.051 285.993,249.051 285.993,247.349 288.486,247.349 285.993,246.356 285.993,242.669 288.486,242.669 
				288.486,240.257 290.978,240.257 288.486,239.421 288.486,237.704 290.269,237.704 288.81,236.246 287.547,234.982 
				248.915,234.982 248.915,236.712 246.362,236.712 249.198,237.988 249.198,239.421 243.986,239.421 243.986,242.083 
				241.681,242.083 243.986,243.236 243.986,246.214 245.625,246.214 245.625,247.632 248.915,247.632 248.915,251.854 
				247.071,251.854 248.579,253.362 248.579,255.25 			"/>
			<polygon style="opacity:0.7;fill:#FFFFFF;enable-background:new    ;" points="288.709,255.234 288.709,251.854 290.978,251.854 
				288.709,250.535 290.411,250.535 288.142,249.051 285.993,249.051 285.993,247.349 288.486,247.349 285.993,246.356 
				285.993,242.669 288.486,242.669 288.486,240.257 290.978,240.257 288.486,239.421 288.486,237.704 290.269,237.704 
				288.81,236.246 287.547,234.982 248.915,234.982 248.915,236.712 246.362,236.712 249.198,237.988 249.198,239.421 
				243.986,239.421 243.986,242.083 241.681,242.083 243.986,243.236 243.986,246.214 245.625,246.214 245.625,247.632 
				248.915,247.632 248.915,251.854 247.071,251.854 248.579,253.362 248.579,255.25 			"/>
			<polygon style="opacity:0.1;enable-background:new    ;" points="288.709,255.234 288.709,251.854 290.978,251.854 
				288.709,250.535 290.411,250.535 288.142,249.051 285.993,249.051 285.993,247.349 288.486,247.349 285.993,246.356 
				285.993,242.669 288.486,242.669 288.486,240.257 290.978,240.257 288.486,239.421 288.486,237.704 290.269,237.704 
				288.81,236.246 287.547,234.982 267.198,234.982 267.198,236.712 264.646,236.712 267.482,237.988 267.482,239.421 
				262.27,239.421 262.27,242.083 259.965,242.083 262.27,243.236 262.27,246.214 263.909,246.214 263.909,247.632 267.198,247.632 
				267.198,251.854 265.355,251.854 266.863,253.362 266.863,255.25 			"/>
			<polygon style="opacity:0.1;enable-background:new    ;" points="249.198,239.421 267.482,239.421 249.198,238.758 			"/>
			<polygon style="opacity:0.1;enable-background:new    ;" points="248.915,247.632 267.198,247.632 267.278,248.909 			"/>
			<polygon style="opacity:0.1;enable-background:new    ;" points="245.625,246.214 263.909,246.214 245.625,246.852 			"/>
			<polygon style="opacity:0.1;enable-background:new    ;" points="248.915,251.854 267.198,251.854 248.915,251.178 			"/>
			<polygon style="opacity:0.1;enable-background:new    ;" points="248.579,253.362 266.863,253.362 266.863,254.059 			"/>
			<polygon style="opacity:0.1;enable-background:new    ;" points="243.986,242.083 262.27,242.083 243.986,241.496 			"/>
			<polygon style="opacity:0.1;enable-background:new    ;" points="248.915,236.712 267.198,236.712 248.915,236.074 			"/>
			<polygon style="opacity:0.1;enable-background:new    ;" points="288.486,237.704 269.94,237.704 288.486,238.272 			"/>
			<polygon style="opacity:0.1;enable-background:new    ;" points="267.482,239.421 288.486,239.421 269.444,240.045 			"/>
			<polygon style="opacity:0.1;enable-background:new    ;" points="262.27,242.083 288.486,242.669 288.486,242.083 			"/>
			<polygon style="opacity:0.1;enable-background:new    ;" points="262.27,243.236 275.238,243.236 262.27,243.874 			"/>
			<polygon style="opacity:0.1;enable-background:new    ;" points="285.993,246.356 267.198,246.214 285.993,245.789 			"/>
			<polygon style="opacity:0.1;enable-background:new    ;" points="285.993,247.349 266.863,247.349 285.993,247.987 			"/>
			<polygon style="opacity:0.1;enable-background:new    ;" points="288.709,250.535 267.482,250.535 267.482,251.178 			"/>
			<polygon style="opacity:0.1;enable-background:new    ;" points="288.709,251.854 273.327,251.854 288.709,252.277 			"/>
		</g>
		<g>
			<path style="fill:#263238;" d="M239.507,250.866v3.209c0,0.823-0.969,1.16-1.782,1.16h-64.124c-0.823,0-1.814-0.337-1.814-1.16
				v-3.209H239.507z"/>
			<path style="opacity:0.4;fill:#FFFFFF;enable-background:new    ;" d="M239.507,250.866v3.209c0,0.823-0.969,1.16-1.782,1.16
				h-64.124c-0.823,0-1.814-0.337-1.814-1.16v-3.209H239.507z"/>
			<path style="opacity:0.2;enable-background:new    ;" d="M239.507,250.866v3.209c0,0.823-0.969,1.16-1.782,1.16h-42.293
				c-0.823,0-1.8-0.337-1.8-1.16v-3.209H239.507z"/>
			<path style="fill:#263238;" d="M250.236,217.551l-7.634,34.624c-0.248,1.14-1.358,1.968-2.479,1.968h-41.698
				c-1.111,0-1.824-1.035-1.567-2.175l7.624-34.36c0.258-1.13,1.358-1.694,2.479-1.694h41.698
				C249.78,215.914,250.484,216.421,250.236,217.551z"/>
			<path style="opacity:0.4;fill:#FFFFFF;enable-background:new    ;" d="M250.236,217.551l-7.634,34.624
				c-0.248,1.14-1.358,1.968-2.479,1.968h-40.28c-1.12,0-1.824-1.035-1.577-2.175l7.634-34.36c0.248-1.13,1.358-1.694,2.479-1.694
				h40.281C249.78,215.914,250.484,216.421,250.236,217.551z"/>
			<path style="opacity:0.2;enable-background:new    ;" d="M229.677,235.15v0.01c0,2.964-3.178,5.373-5.508,5.373
				c-2.33,0-3.711-2.409-3.047-5.373c0.664-2.905,2.983-5.274,5.263-5.363c-0.664,2.964,0.759,5.363,3.079,5.363
				C229.513,235.159,229.677,235.159,229.677,235.15z"/>
		</g>
	</g>
</g>
</svg>
